#!OML:ASF H:\Dans Jumps\Project 1\Capture day 1\Session 1\subject.ASF
:FULLY-SPECIFIED
:DEGREES
266
root 0.036527 15.6323 -13.9378 15.5886 3.37734 0.767521
lowerback 27.6059 0.43202 -1.36802
upperback 4.2736 0.503324 2.75368
thorax -10.5617 0.346353 3.72555
lowerneck -22.2659 -0.226969 -1.57996
upperneck 18.0089 0.748375 -2.34891
head 9.35208 -0.0407168 -0.45128
rclavicle 1.23246e-014 8.74653e-015
rhumerus -15.5663 -8.36045 -77.8986
rradius 38.7824
rwrist 19.1276
rhand -21.3062 -22.0572
rfingers 7.12502
rthumb 5.07873 -51.9763
lclavicle 1.23246e-014 8.74653e-015
lhumerus -9.77144 -8.4147 85.4583
lradius 37.2948
lwrist 35.5148
lhand -26.1633 -9.42035
lfingers 7.12502
lthumb 0.388072 20.559
rfemur -48.2141 -7.55958 21.1046
rtibia 68.8038
rfoot -28.1927 -13.7084
rtoes -9.09168
lfemur -48.5887 7.35351 -22.112
ltibia 67.0044
lfoot -24.4672 10.7664
ltoes -15.0484
267
root 0.0410006 15.8988 -13.788 15.0045 3.48332 0.884966
lowerback 26.3801 0.366373 -1.45422
upperback 4.20543 0.387399 2.67002
thorax -9.99847 0.285982 3.70273
lowerneck -21.5746 -0.339978 -1.64005
upperneck 18.7513 0.570949 -2.16413
head 9.48826 -0.110862 -0.403471
rclavicle 4.37326e-015 -3.18055e-015
rhumerus -14.3967 -6.65757 -78.7508
rradius 40.209
rwrist 18.5418
rhand -22.142 -21.7984
rfingers 7.12502
rthumb 4.27168 -51.7353
lclavicle 4.37326e-015 -3.18055e-015
lhumerus -9.32899 -10.2981 85.6282
lradius 40.6746
lwrist 35.5499
lhand -26.5784 -10.0605
lfingers 7.12502
lthumb -0.0129205 19.9192
rfemur -45.4119 -7.99432 20.889
rtibia 65.8705
rfoot -26.7065 -12.7824
rtoes -9.3237
lfemur -45.8704 7.76398 -22.0788
ltibia 64.1066
lfoot -22.991 9.09589
ltoes -15.0812
268
root 0.0452656 16.1066 -13.6384 14.4771 3.5691 0.992265
lowerback 24.9891 0.293521 -1.54837
upperback 4.16898 0.261836 2.57693
thorax -9.30776 0.217836 3.67211
lowerneck -20.7849 -0.459561 -1.73025
upperneck 19.5165 0.388326 -1.97773
head 9.6147 -0.184887 -0.350221
rclavicle -7.15625e-015 -1.90833e-014
rhumerus -13.1578 -5.32631 -79.5408
rradius 41.3776
rwrist 18.1911
rhand -22.7928 -21.7012
rfingers 7.12502
rthumb 3.64323 -51.6498
lclavicle -7.15625e-015 -1.90833e-014
lhumerus -8.9921 -11.8831 85.7362
lradius 44.1754
lwrist 35.242
lhand -26.9876 -10.7671
lfingers 7.12502
lthumb -0.408157 19.2122
rfemur -42.9163 -8.4118 20.6477
rtibia 63.0982
rfoot -24.993 -11.6696
rtoes -9.56546
lfemur -43.4814 8.19989 -21.9953
ltibia 61.3911
lfoot -21.2565 7.16573
ltoes -14.9856
269
root 0.0492242 16.3962 -13.4802 13.9686 3.62342 1.09742
lowerback 23.4766 0.224648 -1.64572
upperback 4.18052 0.14292 2.47031
thorax -8.49535 0.14917 3.62151
lowerneck -19.9085 -0.576032 -1.84218
upperneck 20.2956 0.211485 -1.79374
head 9.73005 -0.25785 -0.292563
rclavicle 1.59028e-015 -2.06736e-014
rhumerus -11.8962 -4.36102 -80.2896
rradius 42.3952
rwrist 17.8503
rhand -23.1823 -21.7485
rfingers 7.12502
rthumb 3.26708 -51.7032
lclavicle 1.59028e-015 -2.06736e-014
lhumerus -8.68842 -13.2305 85.7995
lradius 47.746
lwrist 34.9813
lhand -27.3206 -11.5057
lfingers 7.12502
lthumb -0.729689 18.4728
rfemur -40.0818 -8.79979 20.3632
rtibia 59.8738
rfoot -23.0069 -10.3721
rtoes -9.78214
lfemur -40.7806 8.66131 -21.874
ltibia 58.2676
lfoot -19.2025 5.03523
ltoes -14.8057
270
root 0.0534959 16.6962 -13.3175 13.4886 3.6359 1.2002
lowerback 21.8484 0.171232 -1.73419
upperback 4.24039 0.0492329 2.34511
thorax -7.56656 0.088834 3.53428
lowerneck -18.94 -0.680925 -1.94753
upperneck 21.0539 0.0435114 -1.61776
head 9.82061 -0.326585 -0.236372
rclavicle -1.63003e-014 -3.18055e-015
rhumerus -10.6542 -3.70933 -81.0129
rradius 43.3556
rwrist 17.3111
rhand -23.3071 -21.8681
rfingers 7.12502
rthumb 3.14653 -51.8247
lclavicle -1.63003e-014 -3.18055e-015
lhumerus -8.34933 -14.4228 85.8221
lradius 51.3305
lwrist 35.0688
lhand -27.5289 -12.2575
lfingers 7.12502
lthumb -0.930874 17.7203
rfemur -37.2453 -9.13587 20.0298
rtibia 56.5168
rfoot -20.6875 -8.8998
rtoes -9.91923
lfemur -38.1039 9.13998 -21.7237
ltibia 55.0436
lfoot -16.7268 2.75261
ltoes -14.4903
271
root 0.0580851 17.007 -13.1513 13.0303 3.62279 1.30726
lowerback 20.1548 0.135488 -1.81022
upperback 4.3427 -0.0146281 2.20325
thorax -6.55578 0.0404171 3.41285
lowerneck -17.8921 -0.769716 -2.03712
upperneck 21.7703 -0.113124 -1.44365
head 9.8807 -0.388453 -0.180592
rclavicle 1.98785e-015 -4.77083e-015
rhumerus -9.46866 -3.28747 -81.71
rradius 44.3384
rwrist 16.4225
rhand -23.2502 -21.9716
rfingers 7.12502
rthumb 3.20144 -51.9273
lclavicle 1.98785e-015 -4.77083e-015
lhumerus -7.92156 -15.5115 85.8059
lradius 54.8671
lwrist 35.6421
lhand -27.6006 -12.9447
lfingers 7.12502
lthumb -1.00017 17.0327
rfemur -34.3444 -9.4014 19.6403
rtibia 52.858
rfoot -17.8444 -7.28846
rtoes -9.8829
lfemur -35.3846 9.59735 -21.551
ltibia 51.5262
lfoot -13.6016 0.385247
ltoes -14.0646
272
root 0.063241 17.3292 -12.9825 12.5673 3.59397 1.40999
lowerback 18.474 0.118079 -1.86662
upperback 4.47808 -0.0459719 2.05337
thorax -5.51608 0.00697663 3.26596
lowerneck -16.7852 -0.838403 -2.09113
upperneck 22.4412 -0.253 -1.28708
head 9.91234 -0.441242 -0.13337
rclavicle -6.75868e-015 1.59028e-014
rhumerus -8.352 -2.99439 -82.3647
rradius 45.3741
rwrist 15.1693
rhand -23.1209 -21.8978
rfingers 7.12502
rthumb 3.32635 -51.8516
lclavicle -6.75868e-015 1.59028e-014
lhumerus -7.38673 -16.532 85.75
lradius 58.293
lwrist 36.6511
lhand -27.5562 -13.5736
lfingers 7.12502
lthumb -0.957301 16.404
rfemur -31.4331 -9.55752 19.1989
rtibia 49.0791
rfoot -14.4853 -5.65879
rtoes -9.54722
lfemur -32.6719 9.98578 -21.3416
ltibia 47.8875
lfoot -9.81084 -1.90024
ltoes -13.5141
273
root 0.0690679 17.6623 -12.8126 12.1132 3.56382 1.51056
lowerback 16.8472 0.11646 -1.91358
upperback 4.62624 -0.0500347 1.90793
thorax -4.49124 -0.0123498 3.11701
lowerneck -15.645 -0.893887 -2.12186
upperneck 23.0607 -0.380773 -1.14502
head 9.91819 -0.487766 -0.0924145
rclavicle -3.97569e-015 -1.19271e-015
rhumerus -7.31454 -2.73249 -82.9488
rradius 46.4845
rwrist 13.7086
rhand -22.9812 -21.6924
rfingers 7.12502
rthumb 3.46121 -51.6441
lclavicle -3.97569e-015 -1.19271e-015
lhumerus -6.73598 -17.4995 85.656
lradius 61.529
lwrist 37.8975
lhand -27.422 -14.1376
lfingers 7.12502
lthumb -0.827691 15.8405
rfemur -28.5689 -9.55995 18.7102
rtibia 45.2246
rfoot -10.518 -4.18561
rtoes -8.7232
lfemur -30.0093 10.2381 -21.0984
ltibia 44.1423
lfoot -5.2433 -3.93906
ltoes -12.814
274
root 0.0751497 18.0051 -12.6442 11.6668 3.57242 1.59199
lowerback 15.3427 0.1186 -1.94247
upperback 4.76389 -0.0415727 1.79072
thorax -3.54159 -0.0235314 2.99103
lowerneck -14.5038 -0.941567 -2.15015
upperneck 23.6459 -0.495641 -1.01945
head 9.91069 -0.529941 -0.0551262
rclavicle -6.36111e-015 2.78299e-014
rhumerus -6.36403 -2.43623 -83.4252
rradius 47.6557
rwrist 12.3279
rhand -22.9042 -21.2894
rfingers 7.12502
rthumb 3.53558 -51.2399
lclavicle -6.36111e-015 2.78299e-014
lhumerus -5.98968 -18.4207 85.5407
lradius 64.5196
lwrist 39.1155
lhand -27.2664 -14.6145
lfingers 7.12502
lthumb -0.67741 15.3642
rfemur -25.8033 -9.37682 18.2097
rtibia 41.3682
rfoot -5.90104 -3.1414
rtoes -7.04034
lfemur -27.4397 10.2727 -20.7955
ltibia 40.3364
lfoot 0.114204 -5.54782
ltoes -11.7118
275
root 0.0815643 18.3551 -12.4793 11.2484 3.58323 1.63153
lowerback 13.9774 0.136474 -1.95751
upperback 4.86993 -0.00733307 1.71596
thorax -2.69925 -0.0195867 2.90279
lowerneck -13.4116 -0.990369 -2.21991
upperneck 24.2355 -0.603757 -0.884298
head 9.91381 -0.572042 -0.00620514
rclavicle 1.39149e-015 -3.97569e-015
rhumerus -5.51858 -2.05292 -83.7656
rradius 48.8804
rwrist 11.3066
rhand -22.9018 -20.7844
rfingers 7.12502
rthumb 3.53795 -50.7347
lclavicle 1.39149e-015 -3.97569e-015
lhumerus -5.17781 -19.3082 85.4127
lradius 67.2255
lwrist 40.0489
lhand -27.1663 -15.0845
lfingers 7.12502
lthumb -0.580711 14.8945
rfemur -23.2319 -8.95703 17.7388
rtibia 37.6277
rfoot -0.79717 -2.77063
rtoes -4.1168
lfemur -25.031 10.0885 -20.4285
ltibia 36.5587
lfoot 6.07795 -6.59072
ltoes -9.82999
276
root 0.0882601 18.7077 -12.3209 10.9005 3.59622 1.61463
lowerback 12.7424 0.163783 -1.95262
upperback 4.92028 0.0436693 1.69677
thorax -1.98392 -0.00472216 2.86369
lowerneck -12.3963 -1.04034 -2.36433
upperneck 24.8426 -0.7019 -0.724251
head 9.93845 -0.614297 0.0655664
rclavicle 1.98785e-016 3.57812e-015
rhumerus -4.78905 -1.54033 -83.9521
rradius 50.1479
rwrist 10.8131
rhand -22.9831 -20.2623
rfingers 7.12502
rthumb 3.45939 -50.214
lclavicle 1.98785e-016 3.57812e-015
lhumerus -4.32848 -20.1533 85.2839
lradius 69.6273
lwrist 40.5351
lhand -27.1749 -15.5146
lfingers 7.12502
lthumb -0.589036 14.4644
rfemur -20.9775 -8.33134 17.3469
rtibia 34.1666
rfoot 4.25348 -3.13604
rtoes -0.250027
lfemur -22.8876 9.68574 -20.0068
ltibia 32.95
lfoot 12.1244 -7.00091
ltoes -7.23593
277
root 0.0954746 19.0566 -12.1706 10.6375 3.59921 1.54438
lowerback 11.6244 0.197382 -1.93191
upperback 4.90574 0.10493 1.73371
thorax -1.39763 0.0176832 2.87674
lowerneck -11.4635 -1.08382 -2.58075
upperneck 25.4653 -0.777132 -0.5583
head 9.98548 -0.653028 0.154682
rclavicle 0 9.14409e-015
rhumerus -4.18712 -0.878886 -83.9846
rradius 51.4567
rwrist 10.8149
rhand -23.1599 -19.7854
rfingers 7.12502
rthumb 3.28866 -49.7397
lclavicle 0 9.14409e-015
lhumerus -3.46953 -20.9467 85.1571
lradius 71.7347
lwrist 40.5668
lhand -27.3206 -15.9233
lfingers 7.12502
lthumb -0.729771 14.0552
rfemur -19.1249 -7.58402 17.058
rtibia 31.1807
rfoot 8.6406 -4.08769
rtoes 3.87495
lfemur -21.0666 9.1169 -19.5601
ltibia 29.6898
lfoot 17.5199 -6.85808
ltoes -4.30978
278
root 0.10353 19.3978 -12.0302 10.5048 3.57515 1.42437
lowerback 10.5717 0.240717 -1.87805
upperback 4.8215 0.181459 1.8075
thorax -0.91783 0.0501202 2.91057
lowerneck -10.6213 -1.11998 -2.81678
upperneck 26.0782 -0.832655 -0.418367
head 10.0471 -0.688374 0.240636
rclavicle -2.98177e-015 -1.03368e-014
rhumerus -3.69444 -0.105566 -83.8948
rradius 52.801
rwrist 11.1496
rhand -23.4331 -19.3982
rfingers 7.12502
rthumb 3.02484 -49.3565
lclavicle -2.98177e-015 -1.03368e-014
lhumerus -2.59592 -21.6996 85.0064
lradius 73.5783
lwrist 40.2718
lhand -27.5448 -16.2968
lfingers 7.12502
lthumb -0.946227 13.6809
rfemur -17.7999 -6.84233 16.8951
rtibia 28.8714
rfoot 11.9511 -5.31298
rtoes 7.56735
lfemur -19.6743 8.47012 -19.1265
ltibia 26.9763
lfoot 21.6656 -6.30229
ltoes -1.60957
